# AST/ASF file generated using VICON BodyLanguage
# -----------------------------------------------
:version 1.10
:name VICON
:units
  mass 1.0
  length 0.45
  angle deg
:documentation
   .ast/.asf automatically generated from VICON data using
   VICON BodyBuilder and BodyLanguage model FoxedUp or BRILLIANT.MOD
:root
   order TX TY TZ RX RY RZ
   axis XYZ
   position 0 0 0  
   orientation 0 0 0 
:bonedata
  begin
     id 1 
     name lhipjoint
     direction 0.623415 -0.642378 0.445763 
     length 2.49859 
     axis 0 0 0  XYZ
  end
  begin
     id 2 
     name lfemur
     direction 0.34202 -0.939693 0  
     length 6.69689  
     axis 0 0 20  XYZ
    dof rx ry rz
    limits (-160.0 20.0)
           (-70.0 70.0)
           (-60.0 70.0)
  end
  begin
     id 3 
     name ltibia
     direction 0.34202 -0.939693 0   
     length 7.37574   
     axis 0 0 20   XYZ
    dof rx
    limits (-10.0 170.0)
  end
  begin
     id 4 
     name lfoot
     direction 0.084323 -0.231675 0.969132   
     length 2.09111   
     axis -90 7.62852e-016 20   XYZ
    dof rx rz
    limits (-45.0 90.0)
           (-70.0 20.0)
  end
  begin
     id 5 
     name ltoes
     direction 1.5357e-011 -4.21957e-011 1   
     length 1.04989   
     axis -90 7.62852e-016 20   XYZ
    dof rx
    limits (-90.0 20.0)
  end
  begin
     id 6 
     name rhipjoint
     direction -0.605402 -0.653903 0.45376   
     length 2.45455  
     axis 0 0 0  XYZ 
  end
  begin
     id 7 
     name rfemur
     direction -0.34202 -0.939693 0   
     length 6.64523   
     axis 0 0 -20   XYZ
    dof rx ry rz
    limits (-160.0 20.0)
           (-70.0 70.0)
           (-70.0 60.0)
  end
  begin
     id 8 
     name rtibia
     direction -0.34202 -0.939693 0   
     length 7.3339   
     axis 0 0 -20   XYZ
    dof rx
    limits (-10.0 170.0)
 end
 begin
     id 9 
     name rfoot
     direction -0.120854 -0.332043 0.93549   
     length 2.23135  
     axis -90 -7.62852e-016 -20   XYZ
    dof rx rz
    limits (-45.0 90.0)
           (-20.0 70.0)
  end
  begin
     id 10 
     name rtoes
     direction -1.53563e-011 -4.21914e-011 1   
     length 1.10614   
     axis -90 -7.62852e-016 -20   XYZ
    dof rx
    limits (-90.0 20.0)
  end
  begin
     id 11 
     name lowerback
     direction 0.0319682 0.998615 -0.0417941   
     length 2.02718   
     axis 0 0 0   XYZ
    dof rx ry rz
    limits (-20.0 45.0)
           (-30.0 30.0)
           (-30.0 30.0)
  end
  begin
     id 12 
     name upperback
     direction 7.63181e-005 0.995808 0.0914691   
     length 1.97539   
     axis 0 0 0   XYZ
    dof rx ry rz
    limits (-20.0 45.0)
           (-30.0 30.0)
           (-30.0 30.0)
  end
  begin
     id 13 
     name thorax
     direction -0.016423 0.993627 0.111514   
     length 2.00349   
     axis 0 0 0   XYZ
    dof rx ry rz
    limits (-20.0 45.0)
           (-30.0 30.0)
           (-30.0 30.0)
  end
  begin
     id 14 
     name lowerneck
     direction -0.174763 0.981668 -0.0760716   
     length 1.71436   
     axis 0 0 0   XYZ
    dof rx ry rz
    limits (-20.0 45.0)
           (-30.0 30.0)
           (-30.0 30.0)
  end
  begin
     id 15 
     name upperneck
     direction 0.345458 0.934587 -0.0848868   
     length 1.72805   
     axis 0 0 0   XYZ
    dof rx ry rz
    limits (-20.0 45.0)
           (-30.0 30.0)
           (-30.0 30.0)
  end
  begin
     id 16
     name head
     direction 0.13001 0.989848 -0.0574291  
     length 1.767  
     axis 0 0 0   XYZ
    dof rx ry rz
    limits (-20.0 45.0)
           (-30.0 30.0)
           (-30.0 30.0)
  end
  begin
     id 17 
     name lclavicle
     direction 0.952951 0.290122 0.0878234  
     length 3.54654  
     axis 0 0 0   XYZ
    dof ry rz
    limits (-20.0 10.0)
           (0.0 20.0)
  end
  begin
     id 18 
     name lhumerus
     direction 1 -4.48957e-011 -4.56525e-028   
     length 5.19807   
     axis 180 -30 -90   XYZ
    dof rx ry rz
    limits (-60.0 90.0)
           (-90.0 90.0)
           (-90.0 90.0)
  end
  begin
     id 19
     name lradius
     direction 1 -4.48979e-011 -2.0317e-027   
     length 3.0937   
     axis 180 -30 -90   XYZ
    dof rx
    limits (-10.0 170.0)
  end
  begin
     id 20
     name lwrist
     direction 1 -4.48953e-011 -3.05809e-027   
     length 1.54685   
     axis 8.48514e-016 90 90   XYZ
    dof ry
    limits (-180.0 0.0)
 end
  begin
     id 21 
     name lhand
     direction 1 -4.48952e-011 -6.11639e-027   
     length 0.672632   
     axis 3.9013e-015 90 90   XYZ
    dof rx rz
    limits (-90.0 90.0)
           (-45.0 45.0)
  end
  begin
     id 22 
     name lfingers
     direction 1 -4.48925e-011 -1.22426e-026   
     length 0.542293   
     axis 7.80276e-015 90 90   XYZ
    dof rx
    limits (0.0 90.0)
  end
  begin
     id 23
     name lthumb
     direction 0.707107 -6.3486e-011 0.707107   
     length 0.778628   
     axis -90 45 5.37419e-014   XYZ
    dof rx rz
    limits (-45.0 45.0)
           (-45.0 45.0)
  end
  begin
     id 24 
     name rclavicle
     direction -0.960732 0.273675 -0.0457849   
     length 3.52079  
     axis 0 0 0   XYZ 
    dof ry rz
    limits (-10.0 20.0)
           (-20.0 0.0)
  end
  begin
     id 25 
     name rhumerus
     direction -1 -4.48976e-011 -1.63613e-027  
     length 5.45222   
     axis 180 30 90   XYZ
    dof rx ry rz
    limits (-90.0 60.0)
           (-90.0 90.0)
           (-90.0 90.0)
  end
  begin
     id 26 
     name rradius
     direction -1 -4.48957e-011 -7.00033e-028   
     length 3.01284   
     axis 180 30 90   XYZ
    dof rx
    limits (-10.0 170.0)
  end
  begin
     id 27 
     name rwrist
     direction -1 -4.48983e-011 -3.05543e-027   
     length 1.50642   
     axis 8.48514e-016 -90 -90   XYZ
    dof ry
    limits (-180.0 0.0)
  end
  begin
     id 28
     name rhand
     direction -1 -4.48984e-011 -6.11072e-027   
     length 0.622296   
     axis 3.9013e-015 -90 -90   XYZ
    dof rx rz
    limits (-90.0 90.0)
           (-45.0 45.0)
  end
  begin
     id 29
     name rfingers
     direction -1 -4.48865e-011 -1.22637e-026   
     length 0.501711   
     axis 7.80276e-015 -90 -90   XYZ
    dof rx
    limits (0.0 90.0)
  end
  begin
     id 30
     name rthumb
     direction -0.707107 -6.34932e-011 0.707107   
     length 0.72036   
     axis -90 -45 -5.37419e-014   XYZ
    dof rx rz
    limits (-45.0 45.0)
           (-45.0 45.0)
  end
:hierarchy
  begin
    root lhipjoint rhipjoint lowerback
    lhipjoint lfemur
    lfemur ltibia
    ltibia lfoot
    lfoot ltoes
    rhipjoint rfemur
    rfemur rtibia
    rtibia rfoot
    rfoot rtoes
    lowerback upperback
    upperback thorax
    thorax lowerneck lclavicle rclavicle
    lowerneck upperneck
    upperneck head
    lclavicle lhumerus
    lhumerus lradius
    lradius lwrist
    lwrist lhand lthumb
    lhand lfingers
    rclavicle rhumerus
    rhumerus rradius
    rradius rwrist
    rwrist rhand rthumb
    rhand rfingers
  end

#!OML:ASF H:\Not Pregnant\Project 1\Capture day 1\Session 1\non-pregnant.ASF
:FULLY-SPECIFIED
:DEGREES
348
root -5.68615 16.2485 34.3736 137.682 -84.5263 -121.129
lowerback 1.13851 3.78929 5.39709
upperback -16.9429 4.44457 -2.47691
thorax -19.5083 0.455489 -6.49077
lowerneck -0.674996 -6.02275 -31.8808
upperneck 3.35702 -8.8558 25.7768
head 3.80541 -4.53983 13.6184
rclavicle -1.07344e-014 -1.51076e-014
rhumerus 96.2878 -57.8396 -42.0918
rradius 26.8368
rwrist 22.9238
rhand -33.0792 -11.8111
rfingers 7.12502
rthumb -6.29072 -41.6977
lclavicle -1.07344e-014 -1.51076e-014
lhumerus 40.8828 50.9546 -11.5866
lradius 34.3462
lwrist 42.3643
lhand -33.5454 -31.9855
lfingers 7.12502
lthumb -6.74075 -2.11283
rfemur -18.9066 -21.716 28.6332
rtibia 13.9489
rfoot -13.8818 28.1041
rtoes 4.09525
lfemur -24.3341 9.25156 -14.7376
ltibia 21.1793
lfoot -15.5524 -11.9776
ltoes -12.5107
349
root -5.68527 16.2478 34.3751 137.724 -84.5219 -121.196
lowerback 1.18582 3.76331 5.41502
upperback -16.9513 4.41114 -2.48506
thorax -19.5577 0.431847 -6.50987
lowerneck -0.731072 -5.95657 -31.7584
upperneck 3.39358 -8.74667 25.7132
head 3.78192 -4.48139 13.5799
rclavicle -4.13472e-014 -5.56597e-015
rhumerus 96.4049 -57.786 -42.3696
rradius 26.7996
rwrist 22.4722
rhand -33.1462 -11.9069
rfingers 7.12502
rthumb -6.3554 -41.7916
lclavicle -4.13472e-014 -5.56597e-015
lhumerus 40.875 50.9842 -11.7088
lradius 34.3637
lwrist 42.5322
lhand -33.6713 -31.9035
lfingers 7.12502
lthumb -6.86231 -2.03474
rfemur -18.8949 -21.69 28.614
rtibia 13.9822
rfoot -13.9173 28.0719
rtoes 4.01853
lfemur -24.3199 9.28799 -14.7479
ltibia 21.1956
lfoot -15.5666 -12.0068
ltoes -12.5249
350
root -5.68437 16.2472 34.3767 137.76 -84.517 -121.258
lowerback 1.23389 3.75345 5.42991
upperback -16.9535 4.40251 -2.48538
thorax -19.5953 0.422757 -6.52153
lowerneck -0.790515 -5.90442 -31.6888
upperneck 3.43526 -8.65276 25.6292
head 3.76678 -4.43087 13.5406
rclavicle 2.8625e-014 1.59028e-015
rhumerus 96.4818 -57.7595 -42.5334
rradius 26.7455
rwrist 22.0713
rhand -33.2016 -11.9651
rfingers 7.12502
rthumb -6.40888 -41.8481
lclavicle 2.8625e-014 1.59028e-015
lhumerus 40.9129 51.0441 -11.7194
lradius 34.3727
lwrist 42.6393
lhand -33.7399 -31.7988
lfingers 7.12502
lthumb -6.92848 -1.93221
rfemur -18.8844 -21.6712 28.5956
rtibia 14.0195
rfoot -13.9505 28.0481
rtoes 3.96114
lfemur -24.2996 9.30359 -14.7526
ltibia 21.2091
lfoot -15.5765 -12.0149
ltoes -12.5281
351
root -5.68344 16.2466 34.3784 137.8 -84.5127 -121.325
lowerback 1.28181 3.76331 5.44095
upperback -16.9481 4.42405 -2.47621
thorax -19.6179 0.431436 -6.52409
lowerneck -0.859306 -5.87 -31.7216
upperneck 3.48897 -8.5794 25.555
head 3.76869 -4.39137 13.5221
rclavicle 1.55052e-014 -8.74653e-015
rhumerus 96.5271 -57.766 -42.5777
rradius 26.6725
rwrist 21.7553
rhand -33.2357 -12.0203
rfingers 7.12502
rthumb -6.4418 -41.9023
lclavicle 1.55052e-014 -8.74653e-015
lhumerus 41.0195 51.1448 -11.579
lradius 34.3678
lwrist 42.6722
lhand -33.7371 -31.6948
lfingers 7.12502
lthumb -6.92582 -1.82805
rfemur -18.8739 -21.6484 28.5748
rtibia 14.0596
rfoot -13.9825 28.0202
rtoes 3.91699
lfemur -24.2764 9.30952 -14.7558
ltibia 21.2202
lfoot -15.5831 -12.016
ltoes -12.5117
352
root -5.68255 16.2461 34.3803 137.846 -84.514 -121.398
lowerback 1.32454 3.76747 5.44751
upperback -16.9417 4.43622 -2.46947
thorax -19.637 0.436374 -6.52509
lowerneck -0.943237 -5.83629 -31.7493
upperneck 3.56571 -8.5058 25.4814
head 3.77955 -4.3515 13.5029
rclavicle -3.69739e-014 -4.37326e-014
rhumerus 96.5918 -57.7681 -42.6645
rradius 26.5905
rwrist 21.5835
rhand -33.2522 -12.0485
rfingers 7.12502
rthumb -6.4577 -41.9301
lclavicle -3.69739e-014 -4.37326e-014
lhumerus 41.1111 51.2431 -11.4697
lradius 34.3554
lwrist 42.6845
lhand -33.6789 -31.5759
lfingers 7.12502
lthumb -6.86965 -1.70732
rfemur -18.8639 -21.6278 28.5469
rtibia 14.1034
rfoot -14.0084 27.9915
rtoes 3.89829
lfemur -24.2504 9.30484 -14.7631
ltibia 21.2287
lfoot -15.5898 -12.0067
ltoes -12.5067
